<svg id="Layer_1" enable-background="new 0 0 49 60" height="512" viewBox="0 0 49 60" width="512" xmlns="http://www.w3.org/2000/svg"><path d="m43.03 18c.265 0 .52-.105.707-.293l5-5c.391-.391.391-1.023 0-1.414l-5-5c-.188-.188-.442-.293-.707-.293h-13v-2c0-2.206-1.794-4-4-4s-4 1.794-4 4v12h-16c-.265 0-.52.105-.707.293l-5 5c-.391.391-.391 1.023 0 1.414l5 5c.188.188.442.293.707.293h16v22.129c-1.152.345-2 1.403-2 2.666v1.205h-1.205c-1.542 0-2.795 1.254-2.795 2.795v1.205h-6c-.552 0-1 .448-1 1s.448 1 1 1h7 18 7c.552 0 1-.448 1-1s-.448-1-1-1h-6v-1.205c0-1.542-1.254-2.795-2.795-2.795h-1.205v-1.205c0-1.263-.848-2.321-2-2.666v-12.129h10c.265 0 .52-.105.707-.293l5-5c.391-.391.391-1.023 0-1.414l-5-5c-.188-.188-.442-.293-.707-.293h-10v-8zm-21 36v-1.205c0-.438.357-.795.795-.795h.205 6 .205c.438 0 .795.357.795.795v1.205z"/></svg>